<svg xmlns="http://www.w3.org/2000/svg" x="0" y="0" viewBox="0 0 623.7 115.2" style="enable-background:new 0 0 623.7 115.2" xml:space="preserve"><style>.st0{fill:#fff}</style><path class="st0" d="M334 31.4h-.7c-.8-.1-1.6-.1-2.4-.1h-20.7V0h-24v31.1h-36.5V0h-24.2v31.1l-28 .1c-.8 0-1.6 0-2.4.1h-.7C179 33 167.1 46.1 167.1 61.7v51.9h24v-52c0-3.1 2.3-5.8 5.4-6.4h29.1v27.9-.1.1c0 15.7 11.9 28.8 27.5 30.3h.7c.8.1 1.6.1 2.4.1H281V89.6h-26c-3.1-.5-5.4-3.2-5.4-6.4V55.3h36.6v58.3h24V55.4H332c3.1.5 5.4 3.2 5.4 6.4v51.9h24v-52c0-15.6-11.8-28.7-27.4-30.3zM534.1.1h24v113.6h-24zM488.1 29.7c-22.2 0-40.3 18.1-40.3 40.3v5c0 22.3 18.1 40.3 40.3 40.3 22.2 0 40.3-18 40.3-40.3v-5c-.1-22.3-18.1-40.3-40.3-40.3zm16.3 45.2c0 9-7.3 16.3-16.3 16.3s-16.3-7.3-16.3-16.3v-5c0-9 7.3-16.3 16.3-16.3s16.3 7.3 16.3 16.3v5zM428.6 31.2l-22.6 50-22.5-50h-26.4l33.5 74.1.1.1c3.9 8.5 13.9 12.1 22.4 8.2 3.6-1.7 6.6-4.6 8.2-8.2l33.8-74.2h-26.5zM44.7 31.2H30.5C13.7 31.2.1 44.9 0 61.7v51.8h24V61.8c0-3.6 2.9-6.5 6.5-6.5h14c3.6 0 6.5 2.9 6.5 6.5v51.7h24V61.7C75 45 61.4 31.4 44.7 31.2zM121.1 29.7c-22.2 0-40.3 18.1-40.3 40.3v5c0 22.3 18.1 40.3 40.3 40.3 22.2 0 40.3-18 40.3-40.3v-5c0-22.3-18.1-40.3-40.3-40.3zm16.3 45.2c0 9-7.3 16.3-16.3 16.3s-16.3-7.3-16.3-16.3v-5c0-9 7.3-16.3 16.3-16.3s16.3 7.3 16.3 16.3v5zM589.5 83.2V55.3h34.2v-24h-34.2V.1h-24V83.2c0 15.7 11.9 28.8 27.5 30.3h.7c.8.1 1.6.1 2.3.1h27.7v-24h-28.8c-3.1-.5-5.4-3.2-5.4-6.4z"/></svg>